# xmcd
#
# Track frame offsets:
#	150
#	13728
#	27530
#	42603
#	53680
#	70483
#	84438
#	102213
#	118315
#	128503
#	144218
#	154559
#	168885
#	179442
#	191873
#	207155
#	219348
#	231565
#	247778
#	266445
#	282463
#	293653
#	306990
#	313298
#	325335
#
# Disc length: 4479 seconds
#
# Revision: 1
# Processed by: cddbd v1.5.2PL0 Copyright (c) Steve Scherf et al.
# Submitted via: audiograbber 1.83.01
#
DISCID=75117d19
DTITLE=abba - mamma mia
DYEAR=1975
DGENRE=musicale
TTITLE0=abba - Traccia  1
TTITLE1=abba - Traccia  2
TTITLE2=abba - Traccia  3
TTITLE3=abba - Traccia  4
TTITLE4=abba - Traccia  5
TTITLE5=abba - Traccia  6
TTITLE6=abba - Traccia  7
TTITLE7=abba - Traccia  8
TTITLE8=abba - Traccia  9
TTITLE9=abba - Traccia 10
TTITLE10=abba - Traccia 11
TTITLE11=abba - Traccia 12
TTITLE12=abba - Traccia 13
TTITLE13=abba - Traccia 14
TTITLE14=abba - Traccia 15
TTITLE15=abba - Traccia 16
TTITLE16=abba - Traccia 17
TTITLE17=abba - Traccia 18
TTITLE18=abba - Traccia 19
TTITLE19=abba - Traccia 20
TTITLE20=abba - Traccia 21
TTITLE21=abba - Traccia 22
TTITLE22=abba - Traccia 23
TTITLE23=abba - Traccia 24
TTITLE24=abba - Traccia 25
EXTD=
EXTT0=
EXTT1=
EXTT2=
EXTT3=
EXTT4=
EXTT5=
EXTT6=
EXTT7=
EXTT8=
EXTT9=
EXTT10=
EXTT11=
EXTT12=
EXTT13=
EXTT14=
EXTT15=
EXTT16=
EXTT17=
EXTT18=
EXTT19=
EXTT20=
EXTT21=
EXTT22=
EXTT23=
EXTT24=
PLAYORDER=
